<?xml version="1.0" encoding="iso-8859-1"?>
<!-- Generator: Adobe Illustrator 19.0.0, SVG Export Plug-In . SVG Version: 6.00 Build 0)  -->
<svg version="1.1" id="Layer_1" xmlns="http://www.w3.org/2000/svg" xmlns:xlink="http://www.w3.org/1999/xlink" x="0px" y="0px"
	 viewBox="0 0 512 512" style="enable-background:new 0 0 512 512;" xml:space="preserve">
<g>
	<path style="fill:#AD4446;" d="M281.416,223.103c-3.36-8.433,0.754-17.993,9.187-21.353l84.855-33.8V29.024
		c0-9.078,7.359-16.437,16.437-16.437s16.437,7.36,16.437,16.437v150.07c0,6.731-4.103,12.781-10.354,15.27l-95.209,37.925
		C294.337,235.649,284.776,231.539,281.416,223.103z"/>
	<path style="fill:#AD4446;" d="M391.894,502.56c-9.078,0-16.437-7.36-16.437-16.437V347.198l-107.828-42.953
		c-8.433-3.359-12.547-12.92-9.187-21.353c3.359-8.435,12.921-12.548,21.353-9.187l118.183,47.077
		c6.253,2.49,10.354,8.54,10.354,15.27v150.07C408.331,495.2,400.973,502.56,391.894,502.56z"/>
	<path style="fill:#AD4446;" d="M495.563,277.731H294.937c-9.078,0-16.437-7.359-16.437-16.437s7.36-16.437,16.437-16.437h200.626
		c9.078,0,16.437,7.36,16.437,16.437S504.642,277.731,495.563,277.731z"/>
</g>
<g>
	<path style="fill:#C74C4E;" d="M209.232,232.291l-95.209-37.925c-6.253-2.49-10.354-8.54-10.354-15.27V29.024
		c0-9.078,7.36-16.437,16.437-16.437s16.437,7.36,16.437,16.437v138.924l84.855,33.801c8.433,3.359,12.547,12.92,9.187,21.353
		C227.223,231.541,217.659,235.649,209.232,232.291z"/>
	<path style="fill:#C74C4E;" d="M120.106,502.56c-9.078,0-16.437-7.36-16.437-16.437v-150.07c0-6.731,4.103-12.781,10.354-15.27
		l118.183-47.077c8.432-3.359,17.994,0.754,21.353,9.187c3.36,8.433-0.754,17.993-9.187,21.353l-107.828,42.953v138.924
		C136.543,495.2,129.184,502.56,120.106,502.56z"/>
	<path style="fill:#C74C4E;" d="M217.063,277.731H16.437C7.36,277.731,0,270.371,0,261.294s7.36-16.437,16.437-16.437h200.626
		c9.078,0,16.437,7.36,16.437,16.437S226.142,277.731,217.063,277.731z"/>
</g>
<path style="fill:#FC5B5D;" d="M256.001,195.078c-40.201,0-70.996-15.297-70.996-54.936c0-37.49,29.807-87.056,70.996-87.056
	c41.09,0,70.996,49.456,70.996,87.056C326.995,160.659,317.772,195.078,256.001,195.078z"/>
<g>
	<path style="fill:#DE5153;" d="M256.001,53.086v141.992c61.772,0,70.996-34.419,70.996-54.936
		C326.995,102.542,297.089,53.086,256.001,53.086z"/>
	<path style="fill:#DE5153;" d="M245.241,81.949l-50.397-43.645c-6.862-5.943-7.607-16.323-1.665-23.186
		c5.944-6.863,16.323-7.607,23.186-1.665l39.636,34.325l39.636-34.325c6.863-5.943,17.244-5.197,23.186,1.665
		s5.197,17.243-1.665,23.186l-50.397,43.645C260.587,87.297,251.418,87.299,245.241,81.949z"/>
	<path style="fill:#DE5153;" d="M256.001,310.495c-31.214,0-59.607-30.64-59.607-74.146c0-42.554,27.581-74.146,59.607-74.146
		c31.214,0,59.607,30.64,59.607,74.146C315.606,278.903,288.026,310.495,256.001,310.495z"/>
</g>
<path style="fill:#C74C4E;" d="M256.001,162.203v148.292c32.025,0,59.607-31.591,59.607-74.146
	C315.606,192.843,287.215,162.203,256.001,162.203z"/>
<path style="fill:#FC5B5D;" d="M256.001,461.4c-41.595,0-72.88-42.25-72.88-91.89c0-49.635,31.285-91.889,72.88-91.889
	c41.609,0,72.88,42.27,72.88,91.889C328.88,419.156,297.589,461.4,256.001,461.4z"/>
<path style="fill:#C74C4E;" d="M318.824,15.118c-5.943-6.862-16.323-7.607-23.186-1.665l-39.636,34.325l-0.001-0.001v38.183
	c3.836,0,7.674-1.337,10.762-4.012l50.397-43.645C324.021,32.361,324.766,21.98,318.824,15.118z"/>
<path style="fill:#DE5153;" d="M256.001,277.62v183.779c41.588,0,72.88-42.244,72.88-91.89
	C328.88,319.891,297.61,277.62,256.001,277.62z"/>
<g>
</g>
<g>
</g>
<g>
</g>
<g>
</g>
<g>
</g>
<g>
</g>
<g>
</g>
<g>
</g>
<g>
</g>
<g>
</g>
<g>
</g>
<g>
</g>
<g>
</g>
<g>
</g>
<g>
</g>
</svg>
